<svg width="458" height="427" viewBox="0 0 458 427" fill="none" xmlns="http://www.w3.org/2000/svg">
<path d="M457.92 425.47C457.92 425.61 355.42 425.73 229.01 425.73C102.6 425.73 0.0800018 425.61 0.0800018 425.47C0.0800018 425.33 102.56 425.21 229.01 425.21C355.46 425.21 457.92 425.32 457.92 425.47Z" fill="#263238"/>
<path d="M97.12 380.21C97.2656 372.209 100.352 364.541 105.79 358.67C108.41 369.48 97.12 380.21 97.12 380.21Z" fill="#C29130"/>
<path d="M109.71 374.12C117.108 371.06 125.373 370.829 132.93 373.47C124.06 380.19 109.71 374.12 109.71 374.12Z" fill="#C29130"/>
<path d="M111.14 367.11C109.95 360.925 111.074 354.519 114.3 349.11C118.1 357 111.14 367.11 111.14 367.11Z" fill="#C29130"/>
<path d="M62.45 341.84C80.86 346.74 90.73 362.74 90.73 362.74C75 362.75 62.45 341.84 62.45 341.84Z" fill="#C29130"/>
<path d="M91.85 349.38C90.85 329.54 110.28 307.09 110.28 307.09C107.35 331.72 91.85 349.38 91.85 349.38Z" fill="#C29130"/>
<path d="M91.75 292.88C92.1252 302.822 89.6997 312.67 84.75 321.3C82 308.53 91.75 292.88 91.75 292.88Z" fill="#C29130"/>
<path d="M84.28 333.19C69.77 331.63 61.88 317.19 61.88 317.19C79.42 322.11 84.28 333.19 84.28 333.19Z" fill="#C29130"/>
<path d="M53 393.84C59.8071 389.627 67.9256 388.065 75.81 389.45C68.14 397.51 53 393.84 53 393.84Z" fill="#C29130"/>
<path d="M90.58 400.35C88.7382 405.057 85.2823 408.956 80.83 411.35C81.45 404.64 90.58 400.35 90.58 400.35Z" fill="#C29130"/>
<path d="M88.71 398.22C80.46 403.3 71.36 401.31 71.36 401.31C77 395.49 88.71 398.22 88.71 398.22Z" fill="#C29130"/>
<path d="M96.13 424.92C96.1173 424.824 96.1173 424.726 96.13 424.63C96.13 424.39 96.13 424.11 96.13 423.76V420.44C96.13 418.99 96.13 417.23 96.13 415.18C96.13 413.13 96.13 410.8 95.98 408.18C95.85 403.02 95.49 396.89 94.98 390.09C94.47 383.29 93.57 375.84 92.43 368.09C90.14 352.51 87.01 338.58 84.49 328.58C83.22 323.58 82.15 319.58 81.37 316.76C81 315.41 80.72 314.34 80.5 313.55C80.42 313.21 80.35 312.94 80.29 312.71C80.279 312.614 80.279 312.516 80.29 312.42C80.29 312.42 80.29 312.51 80.41 312.69L80.68 313.51L81.68 316.69C82.54 319.45 83.68 323.47 85 328.46C88.3954 341.482 91.0662 354.682 93 368C94.14 375.8 95 383.27 95.51 390.08C96.02 396.89 96.32 403.08 96.39 408.21C96.47 410.79 96.39 413.13 96.39 415.21C96.39 417.29 96.39 419.03 96.31 420.47C96.23 421.91 96.22 422.98 96.19 423.8C96.19 424.14 96.19 424.43 96.19 424.66C96.1786 424.748 96.1585 424.836 96.13 424.92Z" fill="#263238"/>
<path d="M69.51 382.93C69.61 382.78 75.51 386.62 82.6 391.51C89.69 396.4 95.43 400.51 95.33 400.63C95.23 400.75 89.33 396.93 82.23 392.05C75.13 387.17 69.41 383.08 69.51 382.93Z" fill="#263238"/>
<path d="M95.33 385C95.5864 384.63 95.8888 384.294 96.23 384L98.84 381.48L107.56 373.3L116.28 365.13L118.92 362.65C119.217 362.327 119.553 362.041 119.92 361.8C119.682 362.166 119.4 362.502 119.08 362.8C118.51 363.44 117.65 364.33 116.58 365.43C114.43 367.61 111.4 370.56 107.98 373.75C104.56 376.94 101.43 379.75 99.13 381.75C97.98 382.75 97.04 383.57 96.38 384.11C96.0744 384.455 95.7208 384.755 95.33 385Z" fill="#263238"/>
<path d="M50.88 373.53C50.88 373.53 65.88 373.24 72.21 385.04C68.0036 384.916 63.8843 383.811 60.1809 381.813C56.4775 379.814 53.2925 376.978 50.88 373.53Z" fill="#C29130"/>
<path d="M71.36 367.51C71.36 367.51 83.56 376.22 81.62 389.51C78.3112 386.898 75.6598 383.548 73.8782 379.728C72.0965 375.908 71.2341 371.723 71.36 367.51Z" fill="#C29130"/>
<path d="M135.65 346.06C135.65 346.06 130.83 362.84 115.53 365.85C117.109 361.211 119.75 357.006 123.244 353.57C126.737 350.134 130.986 347.562 135.65 346.06Z" fill="#C29130"/>
<path d="M64.7 283.67C64.7 283.67 83.82 296.15 81.7 316.44C76.5084 312.681 72.2674 307.76 69.3158 302.07C66.3641 296.38 64.7835 290.079 64.7 283.67Z" fill="#C29130"/>
<path d="M128.21 395.39C127.829 395.766 127.41 396.101 126.96 396.39C126.14 396.98 124.96 397.88 123.53 399.01C116.078 404.914 109.681 412.038 104.61 420.08C103.61 421.62 102.88 422.89 102.37 423.77C102.133 424.247 101.845 424.696 101.51 425.11C101.671 424.602 101.885 424.112 102.15 423.65C102.59 422.73 103.29 421.42 104.22 419.84C109.098 411.593 115.555 404.389 123.22 398.64C124.69 397.55 125.92 396.71 126.79 396.18C127.23 395.86 127.707 395.595 128.21 395.39Z" fill="#263238"/>
<path d="M111.56 407.85C110.181 399.947 111.762 391.812 116 385C118 399.27 111.56 407.85 111.56 407.85Z" fill="#C29130"/>
<path d="M124.43 400.83C129.492 397.953 135.435 397.035 141.13 398.25C131.89 403.14 124.43 400.83 124.43 400.83Z" fill="#C29130"/>
<path d="M380.36 372.55C381.571 373.13 382.653 373.947 383.541 374.954C384.429 375.961 385.106 377.136 385.53 378.41C386.364 380.962 386.6 383.672 386.22 386.33C385.63 391.48 382.71 396.67 379.56 400.78C375.23 397 374.23 390.41 373.94 387.03C373.47 381.69 375.87 371.76 380.36 372.55Z" fill="#C29130"/>
<path d="M384.6 409.28C384.301 407.809 384.398 406.285 384.882 404.863C385.365 403.442 386.217 402.174 387.35 401.19C388.496 400.225 389.823 399.497 391.253 399.051C392.683 398.605 394.188 398.448 395.68 398.59C396.373 398.579 397.06 398.719 397.692 399.003C398.325 399.286 398.887 399.705 399.34 400.23C399.674 400.786 399.855 401.42 399.864 402.068C399.873 402.717 399.709 403.356 399.39 403.92C398.734 405.04 397.791 405.964 396.66 406.6C392.91 408.96 388.84 410.55 384.6 409.28Z" fill="#C29130"/>
<path d="M379 425.05C379.029 424.697 379.083 424.346 379.16 424C379.29 423.25 379.47 422.29 379.68 421.14C380.163 417.957 381.159 414.874 382.63 412.01C384.151 409.135 386.412 406.718 389.18 405.01C390.02 404.512 390.916 404.116 391.85 403.83C392.18 403.72 392.44 403.68 392.62 403.63H392.89C391.649 404.061 390.453 404.614 389.32 405.28C386.649 407.008 384.461 409.385 382.96 412.19C381.518 415.024 380.507 418.058 379.96 421.19C379.7 422.39 379.48 423.36 379.32 424.03C379.248 424.38 379.141 424.722 379 425.05Z" fill="#263238"/>
<path d="M379.21 380.28C379.241 380.431 379.258 380.585 379.26 380.74C379.26 381.08 379.26 381.52 379.34 382.07C379.4 383.22 379.47 384.89 379.53 386.95C379.67 391.07 379.77 396.77 379.74 403.06C379.71 409.35 379.56 415.06 379.39 419.18C379.31 421.24 379.23 422.9 379.15 424.06C379.15 424.6 379.12 425.04 379.06 425.38C379.058 425.535 379.041 425.689 379.01 425.84C378.988 425.687 378.988 425.533 379.01 425.38C379.01 425.03 379.01 424.59 379.01 424.05C379.01 422.85 379.08 421.19 379.13 419.17C379.23 415.05 379.34 409.35 379.37 403.06C379.4 396.77 379.37 391.06 379.27 386.95C379.27 384.95 379.21 383.27 379.19 382.07C379.19 381.53 379.19 381.07 379.19 380.74C379.171 380.587 379.178 380.431 379.21 380.28Z" fill="#263238"/>
<path d="M377.1 412.41C376.58 409.291 375.323 406.342 373.434 403.806C371.546 401.27 369.079 399.221 366.24 397.83C364.79 397.14 362.9 396.68 361.71 397.76C360.52 398.84 360.78 400.76 361.37 402.27C362.642 405.377 364.805 408.037 367.586 409.917C370.368 411.796 373.643 412.81 377 412.83" fill="#C29130"/>
<path d="M366.94 402.71C367.258 402.815 367.566 402.948 367.86 403.11C368.204 403.276 368.538 403.463 368.86 403.67C369.315 403.923 369.755 404.2 370.18 404.5C370.705 404.847 371.209 405.225 371.69 405.63C372.254 406.089 372.791 406.58 373.3 407.1C374.478 408.278 375.518 409.587 376.4 411C377.241 412.437 377.913 413.968 378.4 415.56C378.6 416.3 378.8 417 378.91 417.67C379.03 418.292 379.117 418.919 379.17 419.55C379.221 420.068 379.244 420.589 379.24 421.11C379.267 421.503 379.267 421.897 379.24 422.29C379.245 422.627 379.208 422.962 379.13 423.29C379.05 423.29 379.2 421.86 378.94 419.59C378.877 418.968 378.777 418.35 378.64 417.74C378.503 417.04 378.326 416.349 378.11 415.67C377.607 414.112 376.936 412.613 376.11 411.2C375.251 409.803 374.245 408.503 373.11 407.32C372.57 406.78 372.06 406.32 371.54 405.85C371.02 405.38 370.54 405.04 370.08 404.69C368.21 403.38 366.9 402.78 366.94 402.71Z" fill="#263238"/>
<path d="M202.41 37.94C201.438 38.1708 200.42 38.1293 199.47 37.82C198.996 37.665 198.56 37.4147 198.186 37.0845C197.813 36.7543 197.511 36.3512 197.3 35.9C197.099 35.4454 197.025 34.9447 197.087 34.4515C197.148 33.9582 197.343 33.4911 197.65 33.1C197.282 33.0711 196.923 32.9699 196.593 32.8023C196.264 32.6346 195.971 32.4038 195.731 32.1229C195.491 31.842 195.309 31.5165 195.194 31.1652C195.08 30.8138 195.036 30.4433 195.065 30.075C195.094 29.7066 195.195 29.3476 195.363 29.0183C195.53 28.689 195.761 28.396 196.042 28.156C196.323 27.916 196.648 27.7336 197 27.6193C197.351 27.505 197.722 27.4611 198.09 27.49C197.91 25.7738 198.215 24.0415 198.97 22.49L207 25.78L202.41 37.94Z" fill="#263238"/>
<path d="M244.07 29.53C245.42 29.5379 246.735 29.0974 247.809 28.2776C248.882 27.4577 249.652 26.305 250 25C250.223 24.2178 250.178 23.3831 249.87 22.63C249.71 22.2577 249.443 21.9411 249.103 21.7204C248.763 21.4997 248.365 21.3847 247.96 21.39C248.462 20.9691 248.873 20.4508 249.169 19.8664C249.464 19.282 249.638 18.6436 249.68 17.99C249.711 17.3358 249.572 16.6848 249.278 16.0998C248.984 15.5147 248.543 15.0154 248 14.65C247.447 14.2996 246.799 14.1297 246.145 14.1638C245.491 14.1978 244.864 14.4341 244.35 14.84C244.22 13.44 241.35 12.15 240.06 11.7L236.31 13.7L244.07 29.53Z" fill="#263238"/>
<path d="M238.83 75L237.83 67C237.83 67 249.55 63.7 248.25 51.74C247.63 45.96 245.37 34.17 243.2 23.52C242.079 17.9973 238.919 13.0996 234.349 9.8027C229.779 6.50577 224.134 5.05162 218.54 5.72998L217.39 5.86998C205.05 8.08998 200.05 19.87 202.61 32.09L209.46 79L228.62 89.09L238.83 75Z" fill="#C8877F"/>
<path d="M237.92 67C232.374 67.6732 226.751 66.7395 221.72 64.31C221.72 64.31 226.44 72.47 238.23 69.95L237.92 67Z" fill="#A06763"/>
<path d="M242 34.67C241.82 34.92 240.41 34.12 238.57 34.35C236.73 34.58 235.5 35.65 235.28 35.45C235.06 35.25 235.34 34.94 235.87 34.45C236.598 33.8003 237.51 33.3946 238.48 33.29C239.433 33.1731 240.398 33.3585 241.24 33.82C241.81 34.18 242.05 34.56 242 34.67Z" fill="#263238"/>
<path d="M224 36.68C223.82 36.93 222.41 36.13 220.57 36.36C218.73 36.59 217.5 37.67 217.28 37.46C217.06 37.25 217.33 36.95 217.87 36.46C218.6 35.8142 219.511 35.4091 220.48 35.3C221.434 35.1812 222.401 35.3704 223.24 35.84C223.85 36.19 224.09 36.57 224 36.68Z" fill="#263238"/>
<path d="M231.65 45C232.578 44.5783 233.556 44.2759 234.56 44.1C235.03 44 235.46 43.85 235.5 43.52C235.479 43.032 235.312 42.5615 235.02 42.17L233.2 38.77C230.66 33.92 228.76 29.91 228.96 29.77C229.16 29.63 231.37 33.52 233.91 38.37C234.53 39.56 235.11 40.71 235.67 41.8C236.032 42.3306 236.198 42.9704 236.14 43.61C236.089 43.7826 236.001 43.9419 235.882 44.0766C235.762 44.2114 235.615 44.3184 235.45 44.39C235.199 44.4869 234.937 44.554 234.67 44.59C233.686 44.8611 232.67 44.999 231.65 45Z" fill="#263238"/>
<path d="M226.4 47C226.69 46.94 226.94 48.93 228.81 50.14C230.68 51.35 232.81 50.88 232.81 51.14C232.81 51.26 232.39 51.59 231.49 51.72C230.325 51.8767 229.143 51.6182 228.15 50.99C227.201 50.3826 226.521 49.434 226.25 48.34C226.1 47.49 226.26 47 226.4 47Z" fill="#263238"/>
<path d="M222.94 25C222.82 25.52 220.94 25.51 218.84 26C216.74 26.49 215.04 27.31 214.7 26.9C214.55 26.7 214.8 26.2 215.44 25.63C216.306 24.9243 217.322 24.4252 218.41 24.1705C219.499 23.9158 220.63 23.9122 221.72 24.16C222.55 24.39 223 24.74 222.94 25Z" fill="#263238"/>
<path d="M240 24.48C239.72 24.93 238.41 24.65 236.88 24.82C235.35 24.99 234.11 25.44 233.76 25.04C233.6 24.84 233.76 24.4 234.27 23.94C234.962 23.3592 235.819 23.0095 236.72 22.94C237.616 22.8413 238.519 23.0305 239.3 23.48C239.91 23.85 240.14 24.26 240 24.48Z" fill="#263238"/>
<path d="M241.39 18.22C241.39 18.22 237.34 11.11 233.52 9.8C228.9 8.22 227.6 13.24 223.29 12.58C218.98 11.92 214.58 10.39 210.71 14.13C206.48 18.21 208.96 20.42 209.31 25.75C210.75 47.38 207.56 53.94 205.22 43.95C204.96 42.85 201.78 42.34 200.75 37.71C199.43 31.71 198.3 24.36 199.14 19.88C199.84 16.11 201.61 13.35 204.99 10.13C210.33 5.05 218.37 3.99 223.91 3.88C229.45 3.77 240.76 8.79 241.39 18.22Z" fill="#263238"/>
<path d="M205.94 43.53C205.872 43.0935 205.716 42.6754 205.482 42.3009C205.247 41.9263 204.94 41.6031 204.577 41.3508C204.214 41.0985 203.804 40.9222 203.372 40.8327C202.939 40.7432 202.493 40.7423 202.06 40.83C199.86 41.31 197.53 42.83 198.23 47.46C199.48 55.6 207.39 52.67 207.37 52.46C207.35 52.25 206.49 46.93 205.94 43.53Z" fill="#C8877F"/>
<path d="M205.13 49.64C205.13 49.64 205 49.76 204.78 49.91C204.467 50.105 204.09 50.1696 203.73 50.09C202.82 49.91 201.89 48.66 201.62 47.19C201.493 46.4954 201.523 45.781 201.71 45.1C201.746 44.8339 201.847 44.5807 202.004 44.3628C202.161 44.1448 202.369 43.9687 202.61 43.85C202.765 43.7835 202.939 43.7731 203.102 43.8205C203.264 43.868 203.405 43.9703 203.5 44.11C203.65 44.32 203.62 44.49 203.66 44.5C203.7 44.51 203.82 44.34 203.66 44.01C203.581 43.8165 203.441 43.6546 203.26 43.55C203.137 43.4839 203.002 43.4429 202.863 43.4291C202.724 43.4154 202.584 43.4293 202.45 43.47C202.127 43.595 201.842 43.8017 201.623 44.0699C201.404 44.3381 201.258 44.6586 201.2 45C200.967 45.761 200.919 46.5667 201.06 47.35C201.36 48.98 202.43 50.35 203.66 50.54C203.889 50.5706 204.122 50.5496 204.341 50.4787C204.561 50.4077 204.762 50.2886 204.93 50.13C205.15 49.84 205.16 49.65 205.13 49.64Z" fill="#A06763"/>
<path d="M206.87 27.9C207.967 28.5957 209.223 29.0017 210.52 29.08C211.167 29.097 211.798 28.8813 212.299 28.472C212.8 28.0627 213.138 27.4871 213.25 26.85C213.25 26.27 213.06 25.63 213.38 25.14C213.7 24.65 214.6 24.63 215.3 24.62C216.511 24.5748 217.67 24.1135 218.58 23.3139C219.491 22.5142 220.098 21.4251 220.3 20.23C220.717 20.5989 221.259 20.7958 221.816 20.7809C222.373 20.7661 222.903 20.5406 223.3 20.15C224.068 19.3625 224.721 18.4704 225.24 17.5C225.505 17.0186 225.882 16.6087 226.34 16.3056C226.799 16.0025 227.323 15.8152 227.87 15.76C228.472 15.8832 229.085 15.9436 229.7 15.94C230.76 15.71 231.13 14.39 231.16 13.31C231.19 12.23 231.16 10.97 232.01 10.31C232.86 9.65 233.92 9.85 234.92 9.87C235.92 9.89 237.18 9.51 237.31 8.52C237.319 8.25622 237.277 7.99317 237.184 7.74602C237.091 7.49887 236.951 7.27252 236.77 7.08C235.986 6.17335 234.919 5.55704 233.742 5.3303C232.564 5.10356 231.345 5.27957 230.28 5.83C229.713 4.51923 228.77 3.40606 227.57 2.63132C226.37 1.85657 224.968 1.45504 223.54 1.47752C222.112 1.5 220.723 1.94548 219.548 2.7576C218.373 3.56973 217.465 4.71203 216.94 6.04C215.978 5.3582 214.866 4.9185 213.698 4.75822C212.53 4.59793 211.34 4.72178 210.23 5.11927C209.12 5.51676 208.122 6.17614 207.322 7.04148C206.521 7.90682 205.94 8.95257 205.63 10.09C204.6 9.95591 203.554 10.1261 202.62 10.5796C201.686 11.033 200.905 11.75 200.373 12.642C199.841 13.534 199.582 14.562 199.628 15.5994C199.674 16.6368 200.022 17.6382 200.63 18.48C199.914 18.9462 199.33 19.588 198.932 20.3443C198.535 21.1005 198.338 21.946 198.36 22.8C198.53 24.5 200.36 25.98 201.96 25.34C201.708 26.0457 201.735 26.8208 202.036 27.5071C202.337 28.1934 202.888 28.739 203.577 29.0326C204.266 29.3262 205.042 29.3456 205.745 29.0867C206.448 28.8279 207.026 28.3104 207.36 27.64" fill="#263238"/>
<path d="M219.32 64.7C225.213 67.0777 231.625 67.874 237.92 67.01C237.92 67.01 250.12 63.62 248.25 51.78C248.25 51.78 248.34 62 239.93 62.47C235.1 62.74 234 55 234 55L232 55.2L231.06 59.63C229.56 63.48 224.3 62.45 220.96 61.39C216.18 59.86 210.96 56.08 208.78 42.76L206.51 44.33L207.17 48.96C207.641 52.4173 209.011 55.6905 211.143 58.4525C213.275 61.2146 216.095 63.3688 219.32 64.7Z" fill="#263238"/>
<path d="M198 26.25C198 26.25 197 10.13 207 4.54C215.77 -0.360004 225.69 -1.19 232.53 2.2C238.74 5.28 242.45 12.81 242.45 12.81L198 26.25Z" fill="#C29130"/>
<path d="M234.23 374.47L226.54 401.55C226.54 401.55 251.48 418.45 250.54 423.6L197.54 410.6L207.78 367.92L234.23 374.47Z" fill="#C29130"/>
<path d="M210.71 395.22C210.161 395.251 209.642 395.483 209.253 395.872C208.863 396.262 208.631 396.78 208.6 397.33C208.612 397.878 208.834 398.4 209.218 398.791C209.603 399.181 210.122 399.41 210.67 399.43C211.251 399.396 211.799 399.149 212.209 398.735C212.619 398.322 212.861 397.771 212.89 397.19C212.82 396.62 212.532 396.098 212.087 395.735C211.641 395.372 211.073 395.194 210.5 395.24" fill="#E0E0E0"/>
<g opacity="0.6">
<path d="M197.52 410.58L198.72 406.32L249.12 420.39C249.12 420.39 251.23 422 250.55 423.6L197.52 410.58Z" fill="white"/>
</g>
<path d="M227.47 401.49C227.4 401.75 226.07 401.55 224.6 402.07C223.13 402.59 222.17 403.51 221.96 403.35C221.75 403.19 222.5 401.78 224.3 401.19C226.1 400.6 227.58 401.27 227.47 401.49Z" fill="#263238"/>
<path d="M232.47 405.16C232.47 405.42 231.24 405.59 230.09 406.47C228.94 407.35 228.4 408.47 228.15 408.37C227.9 408.27 228.08 406.79 229.53 405.72C230.98 404.65 232.52 404.91 232.47 405.16Z" fill="#263238"/>
<path d="M234 412.59C233.75 412.59 233.71 411.2 234.72 409.95C235.73 408.7 237.09 408.43 237.14 408.67C237.19 408.91 236.26 409.49 235.45 410.53C234.64 411.57 234.26 412.63 234 412.59Z" fill="#263238"/>
<path d="M228.54 395.12C228.37 395.33 227.27 394.68 225.78 394.42C224.29 394.16 223.04 394.35 222.96 394.09C222.88 393.83 224.2 393.18 225.96 393.51C227.72 393.84 228.71 395 228.54 395.12Z" fill="#263238"/>
<path d="M215.68 381.49L214.57 409.62C214.57 409.62 242.79 420.19 243.09 425.4L188.48 425.22L188.4 381.33L215.68 381.49Z" fill="#C29130"/>
<path d="M197.69 407.19C197.165 407.35 196.718 407.697 196.432 408.165C196.147 408.634 196.043 409.19 196.14 409.73C196.278 410.263 196.615 410.722 197.082 411.013C197.55 411.303 198.111 411.403 198.65 411.29C199.206 411.12 199.68 410.75 199.979 410.251C200.278 409.753 200.382 409.161 200.27 408.59C200.069 408.052 199.667 407.612 199.148 407.364C198.63 407.116 198.035 407.079 197.49 407.26" fill="#E0E0E0"/>
<g opacity="0.6">
<path d="M188.48 425.22L188.65 420.79L240.94 422.63C240.94 422.63 243.37 423.69 243.09 425.4L188.48 425.22Z" fill="white"/>
</g>
<path d="M215.46 409.34C215.46 409.61 214.11 409.72 212.8 410.58C211.49 411.44 210.8 412.58 210.54 412.44C210.28 412.3 210.69 410.8 212.3 409.79C213.91 408.78 215.52 409.1 215.46 409.34Z" fill="#263238"/>
<path d="M221.18 411.73C221.24 411.99 220.08 412.44 219.18 413.56C218.28 414.68 218.01 415.88 217.74 415.87C217.47 415.86 217.31 414.35 218.47 412.97C219.63 411.59 221.17 411.48 221.18 411.73Z" fill="#263238"/>
<path d="M224.41 418.6C224.16 418.6 223.8 417.32 224.49 415.86C225.18 414.4 226.43 413.86 226.49 414.05C226.55 414.24 225.83 415.05 225.28 416.25C224.73 417.45 224.67 418.57 224.41 418.6Z" fill="#263238"/>
<path d="M215 402.9C214.89 403.15 213.66 402.77 212.16 402.9C210.66 403.03 209.47 403.47 209.33 403.24C209.19 403.01 210.33 402.06 212.11 401.97C213.89 401.88 215.13 402.69 215 402.9Z" fill="#263238"/>
<path d="M214.57 401.57C214.452 402.294 214.402 403.027 214.42 403.76C214.42 405.17 214.34 407.18 214.31 409.62V409.79L214.49 409.86C217.3 410.98 220.73 412.34 224.38 413.92C229.13 415.92 233.33 418.02 236.33 419.6L239.85 421.52C240.263 421.794 240.706 422.019 241.17 422.19C240.811 421.849 240.411 421.553 239.98 421.31C239.19 420.78 237.98 420.06 236.55 419.21C232.69 417.029 228.71 415.066 224.63 413.33C220.97 411.75 217.51 410.41 214.63 409.33L214.8 409.58C214.8 407.14 214.73 405.13 214.68 403.72C214.715 403.001 214.678 402.281 214.57 401.57Z" fill="#263238"/>
<path d="M184.67 175.9L181.28 191.17L180.36 276.06C180.36 276.06 183.36 315.41 181.2 339.14C179.31 359.75 181.2 399.57 181.2 399.57L218.02 401.57L230.1 280.17L237.49 205.52L250.77 171.52L184.67 175.9Z" fill="#263238"/>
<path d="M259.56 179.84L266.61 293.28L244.07 386.64L242.48 392.1L209.46 384.44L223.96 170.26L259.56 179.84Z" fill="#263238"/>
<path d="M237.4 206.39C237.411 206.557 237.411 206.724 237.4 206.89C237.4 207.26 237.4 207.75 237.4 208.37C237.4 209.7 237.31 211.6 237.25 214.03C237.13 218.95 236.81 226.03 236.35 234.86C235.35 252.43 233.53 276.69 230.6 303.38C227.67 330.07 224.5 354.2 222.15 371.64C220.96 380.33 219.99 387.37 219.32 392.28C218.98 394.69 218.71 396.58 218.52 397.89C218.43 398.51 218.35 398.99 218.3 399.35C218.279 399.516 218.246 399.679 218.2 399.84C218.187 399.674 218.187 399.506 218.2 399.34C218.2 398.98 218.29 398.5 218.36 397.88C218.52 396.56 218.75 394.67 219.04 392.25C219.67 387.34 220.56 380.25 221.67 371.58C223.9 354.12 227.04 330.01 229.92 303.31C232.8 276.61 234.77 252.39 235.86 234.83C236.38 226.05 236.77 218.94 236.97 214.02C237.08 211.59 237.18 209.69 237.24 208.36C237.24 207.74 237.31 207.26 237.33 206.89C237.338 206.722 237.362 206.554 237.4 206.39Z" fill="#455A64"/>
<path d="M257.62 150.88L254.62 106.34L246.37 80.7L240.89 77.46L239.12 70.75L207 67.42L204.88 73.25L200.78 75.1L185.03 102.1L184.08 160.25L181.43 177.93C181.07 179.34 180.67 180.82 180.26 182.32C178.12 190 168.06 266 168.06 266H168.43L155.18 366C155.18 366 183.48 377.43 197.86 373.46C197.86 373.46 217.7 365.39 224.31 367.1C230.92 368.81 241 377 249.79 378.19C258.58 379.38 261.99 373.42 267.57 372.09C273.15 370.76 282.5 375.63 282.5 375.63L257.62 150.88Z" fill="#C29130"/>
<path opacity="0.3" d="M224.31 367.06L242 185.73L234.46 371.85L231.96 370.47C231.96 370.47 225.84 367.28 224.31 367.06Z" fill="black"/>
<path d="M240.91 77.46C240.432 77.4707 239.953 77.4406 239.48 77.37L235.61 76.96L222.87 75.43L210.14 73.86L206.28 73.41C205.37 73.29 204.88 73.3 204.86 73.25C206.637 73.1514 208.42 73.2352 210.18 73.5C213.45 73.8 217.96 74.3 222.94 74.92C227.92 75.54 232.41 76.13 235.66 76.59L239.5 77.17C239.979 77.2186 240.451 77.3157 240.91 77.46Z" fill="#263238"/>
<path d="M183.49 263.63C183.63 263.63 180.9 284.63 177.38 310.48C173.86 336.33 170.9 357.27 170.76 357.26C170.62 357.25 173.35 336.26 176.87 310.41C180.39 284.56 183.35 263.61 183.49 263.63Z" fill="#263238"/>
<path d="M218.26 336.65C218.252 336.56 218.252 336.47 218.26 336.38V335.6C218.26 334.87 218.26 333.86 218.26 332.6C218.26 329.94 218.33 326.18 218.38 321.54C218.47 312.2 218.49 299.3 218.48 285.05C218.47 270.8 218.48 257.89 218.7 248.55C218.79 243.88 218.89 240.11 218.98 237.5C219.04 236.22 219.08 235.22 219.11 234.5C219.11 234.18 219.11 233.93 219.11 233.72C219.097 233.63 219.097 233.54 219.11 233.45C219.125 233.539 219.125 233.631 219.11 233.72C219.11 233.93 219.11 234.18 219.11 234.5C219.11 235.23 219.11 236.24 219.11 237.5C219.11 240.15 219.04 243.92 218.99 248.56C219 257.89 219 270.79 219 285C219 299.21 218.94 312.16 218.75 321.49C218.66 326.16 218.56 329.94 218.46 332.55C218.41 333.83 218.37 334.83 218.34 335.55C218.34 335.87 218.34 336.12 218.29 336.33C218.298 336.438 218.288 336.546 218.26 336.65Z" fill="#263238"/>
<path d="M219.18 352.07C219.18 352.07 219.07 352.21 218.84 352.42L217.77 353.34C217.21 353.831 216.619 354.286 216 354.7C215.213 355.287 214.395 355.831 213.55 356.33L212.08 357.21C211.57 357.51 211 357.76 210.43 358.06C209.29 358.67 208.01 359.16 206.68 359.71C200.793 361.942 194.49 362.867 188.21 362.42C186.77 362.27 185.4 362.17 184.14 361.91C183.51 361.79 182.9 361.71 182.32 361.57L180.65 361.16C179.699 360.918 178.761 360.628 177.84 360.29C177.132 360.071 176.441 359.804 175.77 359.49L174.49 358.92C174.339 358.859 174.194 358.782 174.06 358.69C174.222 358.709 174.381 358.753 174.53 358.82L175.84 359.3C176.545 359.576 177.267 359.81 178 360C178.83 360.24 179.75 360.57 180.82 360.78L182.47 361.16C183.05 361.29 183.66 361.36 184.28 361.46C185.53 361.7 186.89 361.79 188.28 361.92C194.491 362.317 200.715 361.404 206.55 359.24C207.87 358.71 209.15 358.24 210.28 357.65C210.85 357.37 211.41 357.13 211.93 356.84L213.4 356C214.4 355.49 215.15 354.91 215.87 354.44C216.493 354.046 217.094 353.619 217.67 353.16L218.79 352.32C218.91 352.222 219.041 352.139 219.18 352.07Z" fill="#263238"/>
<path d="M233.07 347.05C232.519 346.806 231.984 346.525 231.47 346.21C230.189 345.567 228.804 345.154 227.38 344.99C225.955 344.836 224.513 344.931 223.12 345.27C222.546 345.462 221.962 345.622 221.37 345.75C221.848 345.355 222.408 345.071 223.01 344.92C224.439 344.464 225.948 344.317 227.438 344.489C228.927 344.662 230.363 345.149 231.65 345.92C232.199 346.191 232.683 346.576 233.07 347.05Z" fill="#263238"/>
<path d="M157.19 350.77C157.19 350.77 157.31 350.57 157.6 350.26C158.019 349.832 158.493 349.462 159.01 349.16C159.781 348.709 160.623 348.391 161.5 348.22C162.581 348.025 163.689 348.025 164.77 348.22C166.734 348.604 168.515 349.631 169.83 351.14C170.227 351.588 170.563 352.085 170.83 352.62C171.02 353 171.11 353.21 171.08 353.23C171.05 353.25 170.57 352.44 169.57 351.39C168.247 350.028 166.542 349.101 164.68 348.73C163.661 348.556 162.619 348.556 161.6 348.73C160.763 348.868 159.953 349.138 159.2 349.53C157.9 350.16 157.27 350.85 157.19 350.77Z" fill="#263238"/>
<g opacity="0.3">
<path d="M184.59 157.46L183.44 164.4C187.33 173.15 197.74 177.23 207.05 179.46C214.54 181.26 222.49 182.4 229.88 180.24C237.27 178.08 243.95 171.89 244.53 164.24C224 166.45 203.91 164.83 184.59 157.46Z" fill="black"/>
</g>
<path d="M258 45.12C258 45.12 252.12 56.54 251.52 60.64C251.419 61.3016 251.375 61.9708 251.39 62.64C251.411 64.5185 251.867 66.3664 252.723 68.039C253.578 69.7115 254.809 71.1632 256.32 72.28L256.46 72.38L266.46 69.25L265.38 61.9L259.6 45.5L258 45.12Z" fill="#E0E0E0"/>
<path d="M299.51 42.05C299.598 41.8882 299.718 41.7461 299.863 41.6328C300.008 41.5195 300.175 41.4372 300.353 41.3913C300.532 41.3453 300.717 41.3365 300.899 41.3656C301.081 41.3946 301.255 41.4608 301.41 41.56C301.716 41.7776 301.96 42.0706 302.12 42.4105C302.279 42.7504 302.348 43.1256 302.32 43.5C302.254 44.244 302.062 44.9712 301.75 45.65L299.05 52.56C298.879 53.188 298.493 53.7363 297.96 54.11C297.38 54.41 296.48 54.04 296.54 53.4" fill="#FFBE9D"/>
<path d="M260.65 40.27C260.65 40.27 262.82 50.51 268.73 53.41C274.64 56.31 292.09 57.28 292.09 57.28L295.15 64.28L264.15 66.67C263.539 64.6515 262.7 62.7091 261.65 60.88C259.65 57.26 259.77 54.37 259.55 51.24C259.33 48.11 259.55 38.94 259.55 38.94L260.65 40.27Z" fill="#FFBE9D"/>
<path d="M260.89 20.74C260.89 20.74 258.16 21.99 259.09 30.74C259.55 35.15 260.2 39.54 260.72 42.82C261.281 46.3046 262.786 49.5692 265.07 52.26L269.84 57.9C270.24 58.3729 270.75 58.7392 271.326 58.9661C271.902 59.193 272.525 59.2733 273.14 59.2L286.85 57.58C288.987 57.3264 291.142 57.8635 292.91 59.09C294.609 57.2197 296.009 55.098 297.06 52.8C298.38 49.55 300.31 36.8 300.31 36.8L260.89 20.74Z" fill="#E0E0E0"/>
<path d="M257.2 35.49C257.2 35.49 257.04 30.73 259.09 30.74C261.52 30.74 261.59 32.55 261.62 36.74C261.62 41.53 260.62 44.74 259.57 45.42C258.52 46.1 257.28 45.35 257.04 42.7C256.933 40.2958 256.987 37.8871 257.2 35.49Z" fill="#FFBE9D"/>
<path d="M298.8 16C297.672 14.0092 296.183 12.2458 294.41 10.8C291.278 8.28319 287.513 6.67669 283.529 6.15638C279.544 5.63606 275.494 6.22198 271.82 7.85C268.85 9.31652 266.217 11.3839 264.087 13.9212C261.958 16.4586 260.379 19.4105 259.45 22.59C265.366 28.517 272.353 33.2677 280.04 36.59C286.58 39.17 293.89 40.39 300.22 37.33L300.53 36.33C301.238 33.1577 301.54 29.9084 301.43 26.66C301.465 22.9419 300.561 19.275 298.8 16Z" fill="#7E57C2"/>
<path d="M257 68.15C256.748 67.9965 256.525 67.8002 256.34 67.57C255.8 66.9709 255.349 66.2973 255 65.57C253.899 63.1186 253.595 60.3835 254.13 57.75C254.687 55.162 255.656 52.6804 257 50.4C257.493 49.4259 258.079 48.5016 258.75 47.64C258.34 48.646 257.865 49.6247 257.33 50.57C256.107 52.8598 255.202 55.3057 254.64 57.84C254.128 60.3775 254.371 63.0095 255.34 65.41C255.8 66.3769 256.356 67.2949 257 68.15Z" fill="#FAFAFA"/>
<path d="M279.09 55.36C278.783 55.1616 278.504 54.9228 278.26 54.65C277.556 53.9657 276.888 53.2447 276.26 52.49C274.13 50.0025 272.325 47.2537 270.89 44.31C269.46 41.3667 268.405 38.2558 267.75 35.05C267.551 34.0815 267.401 33.1036 267.3 32.12C267.252 31.7583 267.252 31.3917 267.3 31.03C267.39 31.03 267.58 32.55 268.15 34.97C269.636 41.2897 272.516 47.1972 276.58 52.26C278.06 54.2 279.15 55.3 279.09 55.36Z" fill="#FAFAFA"/>
<path d="M281.85 54.66C281.154 54.2016 280.531 53.6421 280 53C278.681 51.4821 277.562 49.8018 276.67 48C275.755 46.2195 275.066 44.3315 274.62 42.38C274.404 41.6052 274.296 40.8043 274.3 40C274.995 42.6933 275.942 45.315 277.13 47.83C278.481 50.2524 280.062 52.5395 281.85 54.66Z" fill="#FAFAFA"/>
<path d="M287.94 53.75C286.832 53.2178 285.866 52.4298 285.121 51.4509C284.377 50.4721 283.876 49.3304 283.66 48.12C283.81 48.07 284.35 49.59 285.54 51.12C286.73 52.65 288 53.62 287.94 53.75Z" fill="#FAFAFA"/>
<path d="M294.09 51.39C293.579 51.7412 292.952 51.881 292.34 51.78C291.643 51.7171 290.98 51.4531 290.43 51.02C289.735 50.4535 289.27 49.6539 289.12 48.77L289.57 48.87C289.396 49.1695 289.284 49.5005 289.239 49.8439C289.194 50.1872 289.219 50.5361 289.31 50.87C289.491 51.5362 289.753 52.1777 290.09 52.78L290.48 53.55L289.74 53.11C288.392 52.3186 287.25 51.2184 286.41 49.9C286.05 49.3996 285.795 48.8316 285.66 48.23C285.73 48.23 286.01 48.82 286.66 49.72C287.544 50.942 288.675 51.9642 289.98 52.72L289.63 53.05C289.261 52.4231 288.975 51.7508 288.78 51.05C288.668 50.6455 288.642 50.2219 288.704 49.8068C288.766 49.3917 288.915 48.9942 289.14 48.64L289.5 48.13L289.59 48.74C289.714 49.5141 290.103 50.2211 290.69 50.74C291.162 51.1511 291.741 51.4184 292.36 51.51C292.939 51.5492 293.522 51.5088 294.09 51.39Z" fill="#FAFAFA"/>
<path d="M300.66 35.8C300.524 35.8786 300.38 35.9423 300.23 35.99C299.82 36.1646 299.399 36.3115 298.97 36.43C297.398 36.8965 295.777 37.1784 294.14 37.27C288.708 37.4599 283.303 36.4065 278.34 34.19C273.372 32.0312 268.783 29.0869 264.75 25.47C263.526 24.3759 262.361 23.2176 261.26 22C260.86 21.57 260.58 21.22 260.39 21C260.2 20.78 260.1 20.64 260.11 20.62C260.569 21.0092 261.003 21.4266 261.41 21.87C262.22 22.68 263.41 23.87 264.99 25.17C269.06 28.6626 273.627 31.5306 278.54 33.68C283.439 35.8643 288.756 36.953 294.12 36.87C296.332 36.7525 298.525 36.3937 300.66 35.8Z" fill="#FAFAFA"/>
<path d="M301.34 34.26C301.208 34.3402 301.067 34.404 300.92 34.45C300.509 34.6213 300.088 34.7682 299.66 34.89C298.086 35.3613 296.461 35.6433 294.82 35.73C289.38 35.928 283.968 34.8743 279 32.65C274.038 30.4883 269.454 27.5479 265.42 23.94C264.221 22.8541 263.079 21.7058 262 20.5C261.6 20.08 261.32 19.72 261.12 19.5C260.92 19.28 260.83 19.14 260.85 19.13C261.306 19.5156 261.737 19.9298 262.14 20.37C262.96 21.18 264.14 22.37 265.73 23.67C269.798 27.1649 274.365 30.0331 279.28 32.18C284.176 34.3642 289.49 35.4529 294.85 35.37C297.048 35.2433 299.225 34.8709 301.34 34.26Z" fill="#FAFAFA"/>
<path d="M328.25 384.02L330.9 424.98L308.83 426.86L306.09 385.82L328.25 384.02Z" fill="#7E57C2"/>
<path d="M319.9 424.36C319.71 424.36 319.1 415.41 318.52 404.36C317.94 393.31 317.62 384.36 317.81 384.3C318 384.24 318.61 393.3 319.19 404.3C319.77 415.3 320.08 424.36 319.9 424.36Z" fill="#263238"/>
<path d="M308 413.74C308.122 413.404 308.297 413.09 308.52 412.81C309.886 410.821 311.684 409.166 313.78 407.97C315.339 407.093 317.075 406.581 318.86 406.47C320.478 406.364 322.1 406.596 323.623 407.15C325.147 407.705 326.538 408.569 327.71 409.69C328.407 410.372 329.003 411.149 329.48 412C329.676 412.306 329.815 412.645 329.89 413C329.141 411.951 328.305 410.967 327.39 410.06C325.052 408.013 322.001 406.971 318.9 407.16C315.809 407.444 312.911 408.782 310.69 410.95C308.88 412.55 308.05 413.81 308 413.74Z" fill="#263238"/>
<path d="M306.87 397.5L307.17 402.01L329.29 400.04L329.06 396.64L306.87 397.5Z" fill="black"/>
<path d="M263.17 384.7L264.17 410.85C264.17 410.85 237.94 420.67 237.65 425.52L288.42 425.35L288.49 384.55L263.17 384.7Z" fill="#7E57C2"/>
<path d="M279.89 408.59C280.377 408.739 280.793 409.061 281.059 409.496C281.324 409.931 281.421 410.449 281.33 410.95C281.2 411.443 280.886 411.868 280.453 412.138C280.02 412.407 279.5 412.501 279 412.4C278.481 412.248 278.038 411.907 277.758 411.444C277.479 410.981 277.383 410.43 277.49 409.9C277.675 409.397 278.05 408.986 278.533 408.754C279.017 408.523 279.572 408.489 280.08 408.66" fill="#E0E0E0"/>
<path d="M288.45 425.35V421.11L239.68 422.94C239.68 422.94 237.42 423.94 237.68 425.52L288.45 425.35Z" fill="#E0E0E0"/>
<path d="M263.37 410.59C263.37 410.84 264.62 410.95 265.84 411.74C267.06 412.53 267.72 413.57 267.95 413.47C268.18 413.37 267.8 411.94 266.31 411.01C264.82 410.08 263.32 410.36 263.37 410.59Z" fill="#263238"/>
<path d="M258.06 412.81C258 413.05 259.06 413.47 259.92 414.52C260.78 415.57 261.01 416.67 261.26 416.66C261.51 416.65 261.66 415.24 260.58 413.96C259.5 412.68 258.06 412.58 258.06 412.81Z" fill="#263238"/>
<path d="M255.05 419.19C255.28 419.25 255.62 418.01 254.98 416.65C254.34 415.29 253.18 414.76 253.07 414.97C252.96 415.18 253.69 415.9 254.2 416.97C254.71 418.04 254.81 419.17 255.05 419.19Z" fill="#263238"/>
<path d="M263.8 404.61C263.9 404.83 265.04 404.49 266.44 404.61C267.84 404.73 268.94 405.14 269.07 404.92C269.2 404.7 268.14 403.83 266.49 403.74C264.84 403.65 263.68 404.41 263.8 404.61Z" fill="#263238"/>
<path d="M295.39 192.45L295.32 209.36L296.17 288.29C296.17 288.29 293.37 324.87 295.39 346.93C297.15 366.09 295.39 403.11 295.39 403.11L261.16 405L249.93 292.09L243.06 222.69L245 191.37L295.39 192.45Z" fill="#263238"/>
<path d="M314.18 189L321.53 212.59L328.12 286.64C328.12 286.64 328.47 325.32 330.49 347.38C332.25 366.54 334.99 403.11 334.99 403.11L300.76 405L290.38 286.51L273.75 220.6L272.09 189H314.18Z" fill="#263238"/>
<path d="M308.83 426.86L308.55 422.58L330.64 420.99L330.9 424.98L308.83 426.86Z" fill="#E0E0E0"/>
<path d="M242 185.73L337.79 226.52L344.44 265.52L357.58 358.05C357.58 358.05 329.29 380.76 314.91 376.67C314.91 376.67 295.06 368.37 288.45 370.13C281.84 371.89 271.77 380.41 263 381.63C254.23 382.85 250.79 376.71 245.21 375.35C239.63 373.99 232 368.69 232 368.69L242 185.73Z" fill="#7E57C2"/>
<path d="M238 258C238.17 253.41 239.31 234.28 240.62 198.25C241.369 180.536 243.334 162.895 246.5 145.45L253.5 71.73L262.04 67.38L266.3 61.82C266.3 61.82 282.3 61.08 285.3 61.02C288.84 60.95 293.87 61.02 293.87 61.02L296.87 67.32C301.95 69.92 316.59 80.14 316.59 80.14C316.59 80.14 324.21 91.75 325.18 97.55C326.15 103.35 330.66 183.68 330.66 183.68L345.51 273.47L238 258Z" fill="#7E57C2"/>
<path d="M296.4 66.71C295.964 66.7514 295.526 66.7514 295.09 66.71L291.53 66.53C288.53 66.4 284.38 66.27 279.8 66.34C275.22 66.41 271.06 66.64 268.07 66.86L264.52 67.14C264.085 67.1883 263.645 67.1883 263.21 67.14C263.628 67.0165 264.056 66.9328 264.49 66.89C265.33 66.77 266.54 66.61 268.03 66.46C271.03 66.14 275.19 65.84 279.79 65.77C284.39 65.7 288.55 65.89 291.55 66.13C293.06 66.24 294.27 66.36 295.11 66.46C295.548 66.498 295.98 66.5818 296.4 66.71Z" fill="#263238"/>
<path d="M256.47 70.44C256.47 70.44 240.8 77.06 234.6 83.83C229.36 89.54 224.24 120.19 224.24 120.19L219.87 140.19L188.48 145.29C188.48 145.98 188.23 166.74 188.23 166.74C188.23 166.74 217.03 175.92 229.33 175C241.63 174.08 249.75 162 250.91 154.11C252.14 145.74 255.69 110.35 255.69 110.35L256.47 70.44Z" fill="#7E57C2"/>
<path d="M259.09 106.58C259.097 106.838 259.077 107.096 259.03 107.35C258.96 107.91 258.87 108.64 258.76 109.56C258.5 111.56 258.13 114.29 257.68 117.67C256.73 124.52 255.42 133.96 253.89 144.4C252.983 149.293 251.59 154.084 249.73 158.7C249.31 159.77 248.88 160.8 248.42 161.78C247.959 162.738 247.427 163.66 246.83 164.54C245.755 166.102 244.525 167.553 243.16 168.87C241.208 170.812 238.904 172.363 236.37 173.44C235.443 173.84 234.463 174.103 233.46 174.22C234.422 173.943 235.367 173.609 236.29 173.22C238.759 172.086 240.999 170.51 242.9 168.57C244.23 167.255 245.426 165.811 246.47 164.26C247.629 162.452 248.575 160.515 249.29 158.49C251.1 153.893 252.469 149.135 253.38 144.28C254.91 133.88 256.3 124.46 257.31 117.58C257.83 114.2 258.26 111.46 258.56 109.49C258.71 108.58 258.84 107.85 258.93 107.3C258.962 107.056 259.015 106.815 259.09 106.58Z" fill="#263238"/>
<path opacity="0.3" d="M335.44 213.01L311.72 123.14L311.8 125.45L315.42 229.35L337.78 226.52L335.44 213.01Z" fill="black"/>
<path d="M181.13 139.09C181.13 139.09 178.59 143.62 178.42 146.27C178.25 148.92 179.56 157.88 179.56 157.88L188.48 163.17V152.5L181.13 139.09Z" fill="#FFBE9D"/>
<path d="M296.91 67.34C296.91 67.34 307.91 78.51 310.57 108.56C313.23 138.61 317.08 216.64 317.08 216.64L345.55 214C345.55 214 335.91 120.49 331.65 108.16C327.39 95.83 322.02 80.35 316.65 77.66C311.28 74.97 296.91 67.34 296.91 67.34Z" fill="#E0E0E0"/>
<path d="M344.32 203.12C343.96 203.21 343.591 203.254 343.22 203.25C342.52 203.3 341.49 203.34 340.22 203.38C337.68 203.47 334.22 203.52 330.32 203.53C326.42 203.54 322.96 203.53 320.43 203.42C319.06 203.457 317.69 203.357 316.34 203.12C316.34 203.12 316.72 203.12 317.44 203.12H320.44H330.33H340.22H343.22C343.586 203.08 343.954 203.08 344.32 203.12Z" fill="#263238"/>
<path d="M342.85 187.48C342.501 187.57 342.141 187.614 341.78 187.61C341.09 187.61 340.1 187.7 338.86 187.74C336.39 187.83 332.98 187.88 329.21 187.89C325.44 187.9 322.04 187.89 319.57 187.78C318.23 187.818 316.889 187.717 315.57 187.48C315.57 187.48 315.94 187.48 316.64 187.48H319.56H329.2H338.85H341.77C342.129 187.437 342.491 187.437 342.85 187.48Z" fill="#263238"/>
<path d="M344.18 200.12C344.18 200.26 338.01 200.38 330.41 200.38C322.81 200.38 316.65 200.26 316.65 200.12C316.65 199.98 322.81 199.86 330.41 199.86C338.01 199.86 344.18 200 344.18 200.12Z" fill="#263238"/>
<path d="M343 197.11C343 197.25 337.06 197.37 329.72 197.37C322.38 197.37 316.44 197.25 316.44 197.11C316.44 196.97 322.39 196.85 329.72 196.85C337.05 196.85 343 197 343 197.11Z" fill="#263238"/>
<path d="M341.21 177.4C341.21 177.54 335.43 177.66 328.3 177.66C321.17 177.66 315.39 177.54 315.39 177.4C315.39 177.26 321.17 177.14 328.3 177.14C335.43 177.14 341.21 177.25 341.21 177.4Z" fill="#263238"/>
<path d="M341.21 175.39C341.21 175.53 335.43 175.65 328.3 175.65C321.17 175.65 315.39 175.53 315.39 175.39C315.39 175.25 321.17 175.13 328.3 175.13C335.43 175.13 341.21 175.24 341.21 175.39Z" fill="#263238"/>
<path d="M341.21 173.19C341.21 173.34 335.43 173.45 328.3 173.45C321.17 173.45 315.39 173.34 315.39 173.19C315.39 173.04 321.17 172.93 328.3 172.93C335.43 172.93 341.21 173.05 341.21 173.19Z" fill="#263238"/>
<path d="M343 190.11C342.71 190.682 342.376 191.23 342 191.75L339.14 196.07L339 196.28L338.83 196.09L332.61 189.16H333L329.71 192.73L326.86 195.8L326.65 196.02L326.47 195.79L321.09 189.12H321.42L317.79 194.12L316.79 195.49C316.55 195.8 316.41 195.96 316.4 195.94C316.47 195.753 316.568 195.578 316.69 195.42L317.63 193.99L321.11 188.86L321.27 188.63L321.44 188.84L326.9 195.46H326.51L329.35 192.38C330.5 191.15 331.61 189.95 332.66 188.81L332.85 188.61L333.04 188.82C335.34 191.45 337.43 193.82 339.18 195.82H338.87L341.87 191.6C342.209 191.076 342.587 190.578 343 190.11Z" fill="#263238"/>
<path d="M341.43 179.67C341.136 180.24 340.802 180.788 340.43 181.31L337.61 185.63L337.48 185.84L337.31 185.65L331.17 178.72H331.55L328.3 182.3L325.5 185.37L325.29 185.59L325.11 185.36L319.81 178.68H320.14C318.69 180.73 317.47 182.43 316.56 183.68L315.56 185.05C315.45 185.219 315.319 185.374 315.17 185.51C315.239 185.32 315.337 185.141 315.46 184.98L316.38 183.55L319.81 178.42L319.97 178.19L320.15 178.41L325.52 185.03H325.13L327.93 181.96C329.05 180.72 330.15 179.53 331.19 178.39L331.38 178.18L331.56 178.39L337.61 185.39H337.3L340.3 181.16C340.631 180.63 341.009 180.132 341.43 179.67Z" fill="#263238"/>
<path d="M259.2 282C259.35 282 258.03 302 256.26 326.56C254.49 351.12 252.94 371.1 252.8 371.09C252.66 371.08 253.97 351.09 255.74 326.52C257.51 301.95 259.06 282 259.2 282Z" fill="#263238"/>
<path d="M292 249.52C292.14 249.52 292.26 272.59 292.26 301.04C292.26 329.49 292.14 352.56 292 352.56C291.86 352.56 291.74 329.5 291.74 301.04C291.74 272.58 291.86 249.52 292 249.52Z" fill="#263238"/>
<path d="M301 363.08C300.86 363.08 300.1 346.98 299.31 327.13C298.52 307.28 297.99 291.13 298.13 291.13C298.27 291.13 299.03 307.22 299.83 327.13C300.63 347.04 301.19 363.07 301 363.08Z" fill="#263238"/>
<g opacity="0.3">
<path d="M241.76 180.86C247.58 175.64 251.6 166.62 253.39 158.52C255.18 150.42 255.26 142 255 133.67C255 133.67 252.27 161.41 243.06 168.67L241.76 180.86Z" fill="black"/>
</g>
<path opacity="0.3" d="M293.57 252.9L292.06 361.77C292.038 363.171 292.528 364.531 293.437 365.597C294.347 366.663 295.613 367.361 297 367.56C298.2 367.73 298.95 367.17 299.61 367.14C302 367 301 355.87 301 355.87L293.57 252.9Z" fill="black"/>
<g opacity="0.3">
<path d="M258.39 108.14C256.641 108.133 254.912 108.505 253.32 109.23C252.001 110.092 250.841 111.174 249.89 112.43C244.79 118.22 238.39 122.69 232.57 127.76C223.917 135.307 216.548 144.21 210.75 154.12L208.53 164.12C213.931 164.082 219.226 162.608 223.87 159.85C228.63 157.01 232.5 152.93 236.31 148.91L258.87 125.07C260.59 123.25 262.42 121.16 262.4 118.66C262.4 117.57 262.03 116.41 262.53 115.44C262.933 114.821 263.496 114.323 264.16 114L275.82 107L258.39 108.14Z" fill="black"/>
</g>
<path d="M249.67 103.29C249.67 103.29 251.16 95.34 253.12 93.63L265.72 85.02C265.72 85.02 267.44 84.64 266.48 87.36C265.59 89.85 262.48 91.72 262.48 91.72L260.41 94.72L263.63 94.29L272.53 89.07C272.53 89.07 278.85 85.17 279.04 86.52C279.23 87.87 277.87 89.52 275.15 91.22L268.96 95.04C268.96 95.04 267.96 95.76 270.28 95.24C272.6 94.72 280.03 89.77 281.22 89.31C282.41 88.85 284.86 86.88 285.94 88.31C287.02 89.74 283.33 91.66 283.33 91.66L272.48 99.09C272.48 99.09 277.48 96.84 278.39 96.48C279.3 96.12 281.73 94.58 283.29 93.98C284.85 93.38 286.06 93.53 286.53 94.18C286.754 94.4755 286.86 94.8433 286.829 95.2126C286.797 95.5819 286.63 95.9265 286.36 96.18L276.3 101.64C276.3 101.64 271.53 103.94 271.36 104.23C271.19 104.52 274.25 104.28 274.25 104.28L277.89 102.93C277.89 102.93 282.5 100.39 283.53 101.31C284.56 102.23 283.82 102.97 283.82 102.97L275.35 107.55L264.69 111.55L256.11 114L252.24 116.16C251.97 116.16 247.04 107.49 246.43 103.96L249.67 103.29Z" fill="#C8877F"/>
<path d="M202.94 74.33C200.65 74.71 184.19 82.74 178.56 89.19C172.27 96.38 170.63 110.19 176.56 127.84C180.61 139.96 193.36 166.01 204.28 166.05C216.76 166.05 260.4 117.51 260.4 117.51L245.5 96.38L211.7 126.52L202.94 74.33Z" fill="#C29130"/>
<path d="M245.5 96.38C245.317 96.5658 245.116 96.7333 244.9 96.88C244.51 97.2 243.9 97.7 243.21 98.33L237.07 103.78L216.87 121.78C215.27 123.17 213.71 124.54 212.2 125.87C210.69 127.2 209.2 128.46 207.66 129.6L207.41 129.78L207.31 129.46C204.94 122.22 202.91 116 201.44 111.52L199.8 106.33C199.62 105.76 199.48 105.33 199.38 104.94C199.314 104.784 199.273 104.619 199.26 104.45C199.34 104.597 199.407 104.751 199.46 104.91C199.58 105.27 199.75 105.72 199.95 106.28C200.39 107.53 200.95 109.28 201.74 111.42C203.24 115.88 205.34 122.09 207.74 129.3L207.39 129.17C208.83 128.11 210.31 126.77 211.83 125.48L216.49 121.39C224.41 114.39 231.56 108.03 236.8 103.48C239.41 101.21 241.55 99.39 243.05 98.16C243.81 97.55 244.39 97.08 244.81 96.78C245.028 96.6275 245.259 96.4937 245.5 96.38Z" fill="#263238"/>
<path d="M197.63 94.68C196.416 92.7682 195.049 90.9588 193.54 89.27C191.901 87.7073 190.139 86.2794 188.27 85C188.926 85.1769 189.545 85.468 190.1 85.86C192.905 87.5795 195.222 89.9896 196.83 92.86C197.203 93.4144 197.473 94.0307 197.63 94.68Z" fill="#263238"/>
<path d="M206.52 143.73C206.049 143.134 205.693 142.456 205.47 141.73C204.847 139.97 204.599 138.1 204.74 136.239C204.881 134.377 205.409 132.566 206.29 130.92C206.62 130.221 207.078 129.59 207.64 129.06C207.71 129.12 207.2 129.83 206.64 131.06C205.882 132.699 205.421 134.46 205.28 136.26C205.145 138.059 205.335 139.868 205.84 141.6C206.21 142.91 206.6 143.69 206.52 143.73Z" fill="#263238"/>
<path d="M333.06 117.3C333.06 117.3 338.83 106.54 338.6 100.04C338.37 93.54 335.06 89.58 330.08 86.81C325.1 84.04 322.8 90.17 322.8 90.17L333.06 117.3Z" fill="#455A64"/>
<path d="M328 88.86L327 87.2C325.098 84.0169 322.254 81.5041 318.86 80.01C318.304 79.7164 317.678 79.5782 317.05 79.61C316.737 79.6341 316.442 79.7641 316.213 79.9787C315.984 80.1932 315.835 80.4793 315.79 80.79C315.79 81.59 316.6 82.11 317.24 82.6C318.643 83.7833 319.863 85.1684 320.86 86.71C318.94 86.71 315.72 86.14 313.81 86.17C313.3 86.17 311.91 86 311.74 87.17C311.742 87.6459 311.858 88.1145 312.077 88.5371C312.296 88.9596 312.612 89.324 313 89.6C315.54 90.87 322.55 91.46 322 92.74C322.33 93.65 317.55 93.39 315.79 93.5C315.254 93.4899 314.723 93.6063 314.24 93.84C313.999 93.9613 313.806 94.1611 313.693 94.4064C313.581 94.6517 313.555 94.928 313.62 95.19C313.702 95.4032 313.837 95.5921 314.012 95.739C314.187 95.8859 314.396 95.986 314.62 96.03C318.1 96.74 325.09 97.16 324.09 98.53C322.42 98.72 321.49 99.43 319.4 100.24C319.079 100.366 318.796 100.574 318.579 100.842C318.361 101.11 318.217 101.43 318.16 101.77C317.99 102.87 319.21 103.77 320.32 103.77C321.422 103.662 322.509 103.431 323.56 103.08C324.09 102.906 324.661 102.897 325.197 103.054C325.732 103.211 326.208 103.527 326.56 103.96C326.764 104.418 326.834 104.924 326.762 105.42C326.689 105.915 326.477 106.38 326.15 106.76C325.56 107.57 324.75 108.2 324.15 109.03C323.837 109.42 323.651 109.895 323.615 110.394C323.579 110.892 323.696 111.39 323.95 111.82C324.327 112.204 324.829 112.44 325.365 112.484C325.901 112.528 326.436 112.377 326.87 112.06C327.719 111.398 328.389 110.536 328.82 109.55L331.42 104.74C332.646 102.789 333.485 100.619 333.89 98.35C334.067 96.3439 333.588 94.3347 332.526 92.6236C331.464 90.9126 329.876 89.592 328 88.86Z" fill="#C8877F"/>
</svg>
