<svg xmlns="http://www.w3.org/2000/svg" xmlns:xlink="http://www.w3.org/1999/xlink" width="500" zoomAndPan="magnify" viewBox="0 0 375 374.999991" height="500" preserveAspectRatio="xMidYMid meet" version="1.0"><defs><clipPath id="a7a72d9806"><path d="M 96 72.898438 L 226 72.898438 L 226 269 L 96 269 Z M 96 72.898438 " clip-rule="nonzero"/></clipPath><clipPath id="9f48da16c1"><path d="M 85.398438 279 L 289.398438 279 L 289.398438 302.28125 L 85.398438 302.28125 Z M 85.398438 279 " clip-rule="nonzero"/></clipPath></defs><path fill="#c29130" d="M 239.304688 268.585938 L 278.039062 268.585938 C 266.132812 233.300781 254.863281 207.558594 235.972656 187.054688 L 229.148438 188.964844 C 219.941406 191.667969 210.894531 195.003906 202.164062 198.972656 C 218.671875 218.046875 228.992188 240.773438 237.71875 264.453125 Z M 239.304688 268.585938 " fill-opacity="1" fill-rule="evenodd"/><path fill="#672cbc" d="M 111.84375 268.585938 L 226.285156 268.585938 C 216.605469 242.042969 206.285156 221.382812 190.886719 204.375 C 171.839844 214.230469 154.378906 226.628906 138.503906 240.769531 C 129.78125 248.71875 119.78125 258.730469 111.84375 268.585938 Z M 111.84375 268.585938 " fill-opacity="1" fill-rule="evenodd"/><g clip-path="url(#a7a72d9806)"><path fill="#c29130" d="M 184.066406 154.949219 C 133.429688 179.425781 115.816406 211.847656 96.761719 268.585938 C 96.761719 268.585938 143.269531 201.515625 225.808594 177.359375 C 216.128906 169.09375 204.699219 161.785156 190.734375 154.949219 C 193.113281 153.679688 194.703125 151.296875 194.703125 148.433594 C 194.703125 145.730469 193.117188 143.347656 190.894531 142.074219 C 192.324219 140.964844 193.273438 139.371094 193.273438 137.46875 C 193.273438 135.242188 192.003906 133.335938 190.09375 132.382812 L 190.09375 123.796875 C 200.890625 122.84375 209.78125 115.058594 212.476562 104.886719 C 208.828125 110.449219 202.632812 114.105469 195.492188 114.105469 C 184.222656 114.105469 175.175781 105.042969 175.175781 93.917969 C 175.175781 83.109375 183.585938 74.207031 194.222656 73.730469 C 192.160156 73.09375 190.09375 72.777344 187.871094 72.777344 C 173.742188 72.777344 162.316406 84.21875 162.316406 98.367188 C 162.316406 111.398438 171.996094 122.207031 184.695312 123.636719 L 184.695312 132.378906 C 182.789062 133.332031 181.519531 135.238281 181.519531 137.464844 C 181.519531 139.371094 182.472656 140.960938 183.898438 142.070312 C 181.675781 143.34375 180.089844 145.726562 180.089844 148.429688 C 180.097656 151.292969 181.683594 153.679688 184.066406 154.949219 Z M 184.066406 154.949219 " fill-opacity="1" fill-rule="evenodd"/></g><g clip-path="url(#9f48da16c1)"><path fill="#c29130" d="M 85.496094 279.394531 L 289.304688 279.394531 L 276.921875 302.28125 L 97.875 302.28125 Z M 85.496094 279.394531 " fill-opacity="1" fill-rule="evenodd"/></g></svg>